<svg xmlns="http://www.w3.org/2000/svg" xmlns:xlink="http://www.w3.org/1999/xlink" version="1.1" x="0px" y="0px" viewBox="0 0 100 125" enable-background="new 0 0 100 100" xml:space="preserve"><g><rect x="20.54" y="17.95" fill="#000000" width="3.453" height="3.453"/><rect x="20.54" y="12.771" fill="#000000" width="3.453" height="3.453"/><rect x="25.719" y="17.95" fill="#000000" width="3.454" height="3.453"/><rect x="25.719" y="12.771" fill="#000000" width="3.454" height="3.453"/><rect x="30.899" y="17.95" fill="#000000" width="3.453" height="3.453"/><rect x="30.899" y="12.771" fill="#000000" width="3.453" height="3.453"/><rect x="36.079" y="17.95" fill="#000000" width="3.453" height="3.453"/><rect x="36.079" y="12.771" fill="#000000" width="3.453" height="3.453"/><rect x="58.525" y="17.95" fill="#000000" width="3.453" height="3.453"/><rect x="58.525" y="12.771" fill="#000000" width="3.453" height="3.453"/><rect x="63.705" y="17.95" fill="#000000" width="3.453" height="3.453"/><rect x="63.705" y="12.771" fill="#000000" width="3.453" height="3.453"/><rect x="68.885" y="17.95" fill="#000000" width="3.453" height="3.453"/><rect x="68.885" y="12.771" fill="#000000" width="3.453" height="3.453"/><rect x="74.065" y="17.95" fill="#000000" width="3.453" height="3.453"/><rect x="74.065" y="12.771" fill="#000000" width="3.453" height="3.453"/><rect x="29.173" y="21.403" fill="#000000" width="1.727" height="6.906"/><rect x="67.158" y="21.403" fill="#000000" width="1.727" height="6.906"/><path fill="#000000" d="M59.874,34.528c4.475,0.562,8.601,1.502,12.289,2.762l1.476-5.359c-3.958-1.32-8.325-2.319-12.972-2.93   L59.874,34.528z"/><path fill="#000000" d="M88.146,47.909c1.996,2.783,3.077,5.856,3.077,9.105c0,1.847-0.427,3.619-1.094,5.268l0.986,0.129   C93.572,59.416,95,56.077,95,52.591c0-3.127-1.108-6.109-3.099-8.853L88.146,47.909z"/><path fill="#000000" d="M74.599,38.2c4.981,2.004,9.029,4.625,11.882,7.686l3.752-4.168c-3.309-3.559-8.19-6.616-14.154-8.908   L74.599,38.2z"/><path fill="#000000" d="M13.001,46.479c2.844-3.287,7.033-6.1,12.268-8.229l-1.349-5.442c-6.461,2.485-11.648,5.864-14.944,9.807   L13.001,46.479z"/><path fill="#000000" d="M27.711,37.337c3.691-1.272,7.825-2.224,12.315-2.795l-0.781-5.529c-4.611,0.612-8.945,1.604-12.875,2.916   L27.711,37.337z"/><path fill="#000000" d="M58.094,28.708c-2.627-0.256-5.33-0.398-8.094-0.398c-2.797,0-5.529,0.146-8.185,0.408l0.784,5.543   c2.382-0.218,4.851-0.34,7.4-0.34c2.514,0,4.947,0.117,7.296,0.329L58.094,28.708z"/><path fill="#000000" d="M10.18,62.411c-0.622-1.601-1.403-3.613-1.403-5.396c0-3.001,0.933-5.85,2.647-8.457l-3.996-3.835   C5.863,47.191,5,49.835,5,52.593c0,3.417,1.41,7.086,3.777,10.033L10.18,62.411z"/><path fill="#000000" d="M43.805,42.789c2.042-0.153,4.114-0.234,6.196-0.234c2.039,0,4.067,0.079,6.069,0.226l0.796-5.535   c-2.232-0.194-4.524-0.303-6.865-0.303c-2.382,0-4.712,0.111-6.977,0.314L43.805,42.789z"/><path fill="#000000" d="M13.958,59.604c0-2.379,0.823-4.519,2.287-6.42l-3.514-3.373c-1.709,2.236-2.657,4.664-2.657,7.203   c0,1.689,0.401,3.506,1.185,5.072l2.964-0.344C14.041,61.105,13.958,60.276,13.958,59.604"/><path fill="#000000" d="M71.399,40.072c-3.632-1.159-7.657-2.035-11.957-2.56l-0.789,5.497c4.018,0.429,7.862,1.16,11.338,2.179   L71.399,40.072z"/><path fill="#000000" d="M73.851,40.915l-1.395,5.068c3.769,1.332,6.972,3.046,9.328,5.123l3.308-3.676   C82.317,44.871,78.471,42.649,73.851,40.915"/><path fill="#000000" d="M25.95,40.993c-4.792,1.822-8.734,4.175-11.494,6.883l3.554,3.412c2.303-2.098,5.472-3.83,9.205-5.184   L25.95,40.993z"/><path fill="#000000" d="M88.633,61.979c0.828-1.611,1.296-3.221,1.296-4.965c0-2.729-1.089-5.328-3.05-7.699l-3.293,3.658   c1.571,1.952,2.458,4.164,2.458,6.631c0,0.71-0.138,1.322-0.344,1.993L88.633,61.979z"/><path fill="#000000" d="M56.224,74.688c-2.05,0.157-4.133,0.241-6.224,0.241c-2.14,0-4.27-0.088-6.369-0.252v1.945   c2.083,0.158,4.206,0.249,6.369,0.249c2.111,0,4.187-0.085,6.224-0.236V74.688z"/><path fill="#000000" d="M84.851,63.746c-1.641,2.302-4.861,4.698-8.532,6.34l1.602,1.524c4.507-1.97,9.255-4.991,11.439-7.338   L84.851,63.746z"/><path fill="#000000" d="M41.043,74.433c-5.36-0.594-10.405-1.708-14.654-3.254l-1.533,1.592c1.145,0.463,2.452,0.771,3.696,1.17   c3.854,1.13,8.058,1.959,12.491,2.443V74.433z"/><path fill="#000000" d="M58.741,74.433c5.36-0.594,10.405-1.708,14.654-3.254l1.533,1.592c-1.145,0.463-2.452,0.771-3.696,1.17   c-3.854,1.13-8.058,1.959-12.491,2.443V74.433z"/><path fill="#000000" d="M23.794,70.135c-3.777-1.675-6.918-4.044-8.564-6.409l-4.782,0.573c2.052,2.267,7.797,5.936,11.817,7.392   L23.794,70.135z"/><path fill="#000000" d="M49.892,80.54c-20.784,0-36.151-6.475-41.223-15.539C10.935,75.899,26.048,87.23,49.892,87.23   S89.82,75.899,91.763,65.001C86.042,74.604,70.674,80.54,49.892,80.54"/><path fill="#000000" d="M58.813,71.421v1.74c5.205-0.551,9.93-1.568,13.879-2.947l-1.553-1.477   C67.694,69.964,63.496,70.897,58.813,71.421"/><path fill="#000000" d="M50.001,71.907c-2.187,0-4.313-0.088-6.368-0.254v1.734c2.067,0.154,4.188,0.246,6.368,0.246   c2.126,0,4.2-0.09,6.222-0.236v-1.727C54.212,71.824,52.131,71.907,50.001,71.907"/><path fill="#000000" d="M28.785,68.71l-1.465,1.51c3.913,1.361,8.581,2.373,13.723,2.927v-1.739   C36.383,70.878,32.208,69.938,28.785,68.71"/><path fill="#000000" d="M20.148,63.022l-3.784,0.44c1.588,2.017,4.827,4.231,8.336,5.737l1.49-1.535   C23.296,66.333,21.204,64.751,20.148,63.022"/><path fill="#000000" d="M19.354,60.468c0-1.092,0.435-2.145,1.201-3.146l-2.914-2.799c-1.522,1.578-2.388,3.288-2.388,5.082   c0,0.614,0.079,1.471,0.267,2.064l3.831-0.445C19.271,60.888,19.354,60.812,19.354,60.468"/><path fill="#000000" d="M28.739,52.239l-0.856-3.453c-3.351,1.117-6.16,2.486-8.282,4.03l2.812,2.696   C24,54.283,26.138,53.177,28.739,52.239"/><path fill="#000000" d="M42.129,49.424l-0.484-3.423c-4.09,0.408-7.906,1.1-11.282,2.035l0.846,3.411   C34.403,50.517,38.103,49.823,42.129,49.424"/><path fill="#000000" d="M50.001,49.029c1.759,0,3.47,0.067,5.146,0.175l0.494-3.428c-1.841-0.119-3.718-0.2-5.641-0.2   c-1.973,0-3.893,0.081-5.775,0.209l0.486,3.427C46.434,49.101,48.192,49.029,50.001,49.029"/><path fill="#000000" d="M68.308,51.31l0.929-3.383c-3.312-0.891-7.031-1.549-11.012-1.939l-0.491,3.423   C61.612,49.788,65.186,50.438,68.308,51.31"/><path fill="#000000" d="M77.726,55.615l2.576-2.864c-2.19-1.577-5.112-2.963-8.584-4.088l-0.936,3.414   C73.667,53.073,76.033,54.272,77.726,55.615"/><path fill="#000000" d="M82.278,54.431l-2.731,3.036c0.696,0.958,1.103,1.96,1.103,3.001c0,0.328,0.101,0.271,0.028,0.594   l3.745,0.486c0.209-0.625,0.327-1.297,0.327-1.943C84.75,57.773,83.854,56.034,82.278,54.431"/><path fill="#000000" d="M79.855,63.021c-1.061,1.735-3.162,3.322-6.072,4.658l1.577,1.496c3.435-1.483,6.503-3.709,8.093-5.686   L79.855,63.021z"/><path fill="#000000" d="M28.604,40.072c3.632-1.159,7.657-2.035,11.957-2.56l0.789,5.497c-4.018,0.429-7.863,1.16-11.338,2.179   L28.604,40.072z"/></g></svg>