<!DOCTYPE svg PUBLIC "-//W3C//DTD SVG 1.1//EN" "http://www.w3.org/Graphics/SVG/1.1/DTD/svg11.dtd">

<!-- Uploaded to: SVG Repo, www.svgrepo.com, Transformed by: SVG Repo Mixer Tools -->
<svg fill="#323643" height="800px" width="800px" version="1.2" baseProfile="tiny" id="Layer_1" xmlns="http://www.w3.org/2000/svg" xmlns:xlink="http://www.w3.org/1999/xlink" viewBox="-25.6 -25.6 307.20 307.20" xml:space="preserve" stroke="#000000">

<g id="SVGRepo_bgCarrier" stroke-width="0"/>

<g id="SVGRepo_tracerCarrier" stroke-linecap="round" stroke-linejoin="round"/>

<g id="SVGRepo_iconCarrier"> <path id="XMLID_28_" d="M244.7,101.5C218.1,66,175.8,42.9,128,42.9S37.9,66,11.3,101.5c-4.9,6.9-8,15.3-8,24.5s3.1,17.6,8,24.3 C37.9,185.9,80.2,209,128,209s90.1-23.1,116.7-58.7c4.9-6.9,8-15.3,8-24.5S249.6,108.5,244.7,101.5z M227.5,138.7 c-23.7,31.3-60.3,49.7-99.5,49.7c-39.4,0-75.8-18.4-99.5-49.7c-2.7-3.7-4.3-8.2-4.3-12.7c0-4.3,1.6-9,4.3-12.7 C52.2,82.1,88.6,63.7,128,63.7c39.2,0,75.8,18.4,99.5,49.7c1.8,2.5,4.3,7.2,4.3,12.7S229.4,136.1,227.5,138.7z M128,79.2 c-25.8,0-46.8,20.8-46.8,46.8s21.1,46.8,46.8,46.8s46.8-21.1,46.8-46.8S153.8,79.2,128,79.2z M144.6,119.9 c-5.7,0-10.4-4.7-10.4-10.4c0-5.7,4.7-10.4,10.4-10.4c5.7,0,10.4,4.7,10.4,10.4C155,115.2,150.3,119.9,144.6,119.9z"/> </g>

</svg>